<svg width="250" height="64" viewBox="0 0 250 64" fill="none" xmlns="http://www.w3.org/2000/svg">
<path fill-rule="evenodd" clip-rule="evenodd" d="M5.60106 17.5291L244.399 17.5291C245.905 17.5291 247.29 18.1314 248.314 19.2155C249.338 20.2393 249.94 21.6245 250 23.1302L250 58.3024C249.88 59.8081 249.277 61.1933 248.314 62.2172C247.29 63.3012 245.905 63.9035 244.399 63.9035L5.60106 63.9035C4.0954 63.9035 2.71019 63.3012 1.68634 62.2172C0.662491 61.1933 0.0602263 59.8081 -2.4483e-07 58.3024L-1.78226e-06 23.1302C0.120451 21.6245 0.722715 20.2393 1.68634 19.2155C2.71019 18.1314 4.0954 17.5291 5.60106 17.5291Z" fill="#E3131D"/>
<path fill-rule="evenodd" clip-rule="evenodd" d="M61.6117 25.2983C65.8877 25.2983 69.9229 27.1051 72.8138 29.8756C75.7047 32.646 77.5114 36.5607 77.5114 40.9572C77.5114 45.3538 75.7047 49.2685 72.8138 52.1593C70.0434 54.9298 66.0082 56.6763 61.6117 56.6763C57.2151 56.6763 53.2402 54.99 50.2891 52.1593C47.3982 49.2685 45.5914 45.3538 45.5914 40.9572C45.5914 36.5607 47.3982 32.646 50.2891 29.8756C53.18 27.1051 57.2151 25.2983 61.6117 25.2983ZM61.6117 29.8756C58.5401 29.8756 55.7095 31.0801 53.722 33.0676C51.7948 35.1755 50.6505 37.8857 50.6505 40.897L50.6505 41.0175C50.6505 44.089 51.855 46.9196 53.722 48.9071C55.7095 50.8946 58.4197 52.0991 61.6117 52.0991C64.6832 52.0991 67.5139 50.8946 69.4411 48.9071C71.4286 46.7992 72.6331 44.089 72.6331 41.0175C72.6331 37.9459 71.4286 35.2357 69.4411 33.1278C67.5139 31.0801 64.6832 29.8756 61.6117 29.8756Z" fill="white"/>
<path fill-rule="evenodd" clip-rule="evenodd" d="M12.5271 25.7802L26.0781 47.2208L39.3881 25.7802L39.8097 25.9006L43.3028 55.2911L43.3028 55.532L43.1221 55.532L38.304 55.8934L38.1233 55.8934L38.1233 55.7127L36.6177 38.7891L26.0781 55.532L25.8974 55.8332L25.7167 55.532L15.1168 38.7891L13.1896 55.532L13.1896 55.7127L13.0089 55.7127L8.91351 55.2911L8.67261 55.2911L8.67261 55.1105L12.226 25.9006L12.5271 25.7802Z" fill="white"/>
<path fill-rule="evenodd" clip-rule="evenodd" d="M81.4864 25.1177L100.819 45.4742L100.819 26.2017L100.819 26.0211L100.879 26.0211L105.396 24.8165L105.577 24.6961L105.577 24.9972L105.577 56.9172L105.276 57.0979L86.0033 36.6209L86.0033 54.9297L86.0033 54.99L85.8829 55.1104L81.4261 56.1945L81.125 56.315L81.125 56.0138L81.125 25.1779L81.4864 25.1177Z" fill="white"/>
<path fill-rule="evenodd" clip-rule="evenodd" d="M144.483 26.0813L152.313 26.0813C153.999 26.0813 155.384 26.262 156.709 26.6835C158.034 27.1051 159.118 27.7074 160.022 28.3699C160.925 29.1528 161.648 30.1767 162.13 31.2608C162.551 32.4653 162.732 33.7903 162.732 35.2357C162.732 36.6209 162.551 37.9459 162.009 39.03C161.889 39.2106 161.828 39.3311 161.708 39.5118C161.226 40.4152 160.504 41.1379 159.6 41.8004C159.419 41.9811 158.998 42.222 158.697 42.4026C158.396 42.5833 158.094 42.8242 157.673 43.0049C155.987 43.7879 153.758 44.2094 151.168 44.2094C150.988 44.2094 150.687 44.2094 150.265 44.2094C149.964 44.2094 149.542 44.2094 149.06 44.2094L149.06 54.99L149.06 55.1104L148.94 55.2309L144.544 56.2547L144.242 56.3752L144.242 56.0741L144.242 26.3824L144.242 26.2017L144.483 26.2017L144.483 26.0813ZM149.121 30.4176L149.121 39.9334C149.241 40.0538 149.422 40.0538 149.542 40.0538C149.723 40.0538 149.964 40.0538 150.265 40.1743C150.446 40.1743 150.687 40.1743 150.867 40.1743C151.168 40.1743 151.349 40.1743 151.65 40.1743C152.734 40.1743 153.638 40.0538 154.421 39.8731C154.541 39.8731 154.601 39.7527 154.722 39.7527C155.444 39.572 155.926 39.2709 156.348 38.9697C156.83 38.5482 157.251 38.0663 157.552 37.4641C157.854 36.8618 157.974 36.1391 157.974 35.3561C157.974 34.4528 157.854 33.73 157.552 33.1278C157.552 33.0073 157.432 32.9471 157.432 32.8266C157.251 32.3448 156.83 31.9232 156.408 31.6221C156.227 31.4414 155.926 31.2005 155.625 31.1403C155.324 31.0198 154.902 30.8392 154.601 30.7187C153.818 30.538 152.795 30.4176 151.831 30.4176L149.121 30.4176Z" fill="white"/>
<path fill-rule="evenodd" clip-rule="evenodd" d="M205.192 26.0813L205.192 51.3162L218.622 51.3162L218.923 51.3162L218.682 51.6173L217.116 55.8331L216.996 55.8934L216.875 55.8934L200.494 55.8934L200.313 55.8934L200.313 55.7127L200.313 26.9244L200.313 26.804L200.494 26.6835L205.011 25.9006L205.192 25.9006L205.192 26.0813Z" fill="white"/>
<path fill-rule="evenodd" clip-rule="evenodd" d="M222.175 26.0813L232.474 38.3072L238.075 25.9006L238.075 25.7199L238.316 25.7801L242.291 27.5869L242.472 27.7074L242.472 27.8881L229.704 56.315L229.583 56.3752L229.523 56.3752L225.126 55.2309L224.886 55.2309L225.006 54.9297L230.185 43.306L218.502 29.0926L218.381 29.0324L218.502 28.7915L221.995 26.0813L222.115 26.021L222.175 26.0813Z" fill="white"/>
<path fill-rule="evenodd" clip-rule="evenodd" d="M125.211 25.2983C129.607 25.2983 133.582 27.1051 136.533 29.8756C139.424 32.646 141.231 36.5607 141.231 40.9572C141.231 45.3538 139.424 49.2685 136.533 52.1593C133.642 54.9298 129.607 56.6763 125.211 56.6763C120.995 56.6763 117.02 54.99 114.129 52.1593C111.238 49.2685 109.431 45.3538 109.311 40.9572C109.311 36.5607 111.238 32.646 114.129 29.8756C117.02 27.1051 120.995 25.2983 125.211 25.2983ZM125.211 29.8756C122.199 29.8756 119.429 31.0801 117.502 33.0676C115.514 35.1755 114.31 37.8857 114.31 40.897L114.31 41.0175C114.31 44.089 115.514 46.9196 117.502 48.9071C119.429 50.8946 122.199 52.0991 125.211 52.0991C128.282 52.0991 131.113 50.8946 133.1 48.9071C135.028 46.7992 136.172 44.089 136.172 41.0175C136.172 37.9459 134.967 35.2357 133.1 33.1278C131.113 31.0801 128.282 29.8756 125.211 29.8756Z" fill="white"/>
<path fill-rule="evenodd" clip-rule="evenodd" d="M180.679 25.2983C184.955 25.2983 188.991 27.1051 191.881 29.8756C194.772 32.646 196.7 36.5607 196.7 40.9572C196.7 45.3538 194.893 49.2685 192.002 52.1593C189.111 54.99 185.076 56.6763 180.679 56.6763C176.283 56.6763 172.308 54.99 169.357 52.1593C166.466 49.2685 164.659 45.3538 164.659 40.9572C164.659 36.5607 166.466 32.646 169.357 29.8756C172.428 27.1051 176.283 25.2983 180.679 25.2983ZM180.679 29.8756C177.608 29.8756 174.777 31.0801 172.79 33.0676C170.862 35.1755 169.718 37.8857 169.718 40.897L169.718 41.0175C169.718 44.089 170.923 46.9196 172.79 48.9071C174.777 50.8946 177.487 52.0991 180.679 52.0991C183.751 52.0991 186.581 50.8946 188.509 48.9071C190.496 46.7992 191.701 44.089 191.701 41.0175C191.701 37.9459 190.496 35.2357 188.509 33.1278C186.581 31.0801 183.811 29.8756 180.679 29.8756Z" fill="white"/>
<path fill-rule="evenodd" clip-rule="evenodd" d="M5.90216 19.095L244.098 19.095C245.182 19.095 246.206 19.5768 246.989 20.2995C247.772 21.0825 248.193 22.1063 248.193 23.3109L248.193 58.1218C248.193 59.3263 247.772 60.3501 246.989 61.1331C246.206 61.8558 245.182 62.3376 244.098 62.3376L5.90216 62.3376C4.81809 62.3376 3.79424 61.8558 3.01129 61.1331C2.22835 60.3501 1.80676 59.3263 1.80676 58.1218L1.80676 23.3109C1.80676 22.1063 2.22835 21.0825 3.01129 20.2995C3.79423 19.5768 4.81808 19.095 5.90216 19.095ZM244.098 20.7211L5.90216 20.7211C5.17944 20.7211 4.57718 21.0223 4.09537 21.5041C3.67378 21.9257 3.37265 22.5882 3.37265 23.3109L3.37265 58.1218C3.37265 58.8445 3.67378 59.507 4.09537 59.9286C4.57718 60.4104 5.17944 60.7115 5.90216 60.7115L244.098 60.7115C244.82 60.7115 245.423 60.4104 245.905 59.9285C246.326 59.507 246.627 58.8445 246.627 58.1218L246.627 23.3109C246.627 22.5881 246.326 21.9257 245.905 21.5041C245.423 21.0223 244.82 20.7211 244.098 20.7211Z" fill="white"/>
<path d="M144.242 0.545303C144.544 0.123718 146.651 0.183943 146.892 0.605528C146.049 0.665755 146.17 1.26802 146.17 1.81006C146.17 5.72478 146.17 9.69972 146.109 13.6144C146.109 13.9156 145.989 14.2769 145.868 14.5781C145.628 14.3372 145.387 14.1565 145.206 13.8553C143.459 10.6633 141.713 7.47134 139.906 4.27934C139.846 4.09866 139.725 3.97821 139.605 3.67708C139.545 3.91798 139.545 3.97821 139.545 4.09866C139.605 6.86908 139.605 9.57927 139.665 12.3497C139.665 12.711 139.725 13.0122 139.725 13.3735C139.786 13.7349 139.906 14.036 140.328 14.0963C140.448 14.0963 140.508 14.2769 140.629 14.3372C140.508 14.3974 140.388 14.5178 140.267 14.5178C139.063 14.5178 137.858 14.5781 136.654 14.4576C136.232 14.4576 135.69 14.1565 135.449 13.8553C134.847 13.0724 134.365 12.2292 133.883 11.3258C133.281 10.2418 132.739 9.15769 132.197 8.13384C132.137 8.01338 132.077 7.95316 131.956 7.77248C131.896 7.95316 131.896 8.01338 131.896 8.07361C131.896 9.69972 131.956 11.3861 131.956 13.0122C131.956 13.494 132.016 14.036 132.679 14.0963C132.739 14.0963 132.86 14.2769 132.86 14.3372C132.86 14.3974 132.739 14.5178 132.619 14.5178C131.836 14.5178 131.053 14.5178 130.27 14.5178C130.21 14.5178 130.089 14.3974 130.029 14.3372C130.089 14.2769 130.149 14.1565 130.21 14.0963C130.33 13.9156 130.571 13.7349 130.631 13.5542C130.691 13.0122 130.752 12.4099 130.752 11.8679C130.752 8.55542 130.752 5.30319 130.752 1.99073C130.752 1.32824 130.872 0.60553 129.848 0.545303C130.089 0.183945 132.197 0.0634889 132.739 0.424847C132.679 0.485074 132.558 0.545302 132.498 0.605529C132.318 0.786208 132.077 0.906662 132.077 1.14757C132.016 1.68961 132.016 2.17142 132.016 2.71345C132.016 3.91798 132.016 5.12251 132.016 6.44749C132.197 6.20659 132.257 6.14636 132.318 6.02591C133.1 4.6407 133.883 3.25549 134.666 1.87028C134.907 1.4487 135.208 1.02711 134.847 0.545303C134.847 0.485077 134.968 0.244171 135.028 0.244171C135.69 0.244171 136.292 0.244171 136.955 0.244171C137.015 0.244171 137.075 0.36462 137.256 0.485073C135.991 0.665752 135.69 1.74983 135.208 2.593C134.486 3.7373 133.883 4.88161 133.221 6.02591C133.1 6.20659 133.1 6.56795 133.161 6.74863C134.365 8.85655 135.51 10.9645 136.774 13.0122C137.015 13.4338 137.497 13.7951 137.979 14.036C138.521 14.3372 138.882 14.0963 138.942 13.4338C139.003 12.9519 139.003 12.4099 139.003 11.9281C139.003 8.31451 139.003 4.76115 139.003 1.14757C139.003 0.846435 139.003 0.545303 139.063 0.244171C139.063 0.123718 139.183 0.00326402 139.244 0.00326402C139.304 0.00326401 139.484 0.0634885 139.545 0.123715C139.665 0.304394 139.786 0.5453 139.906 0.725979C141.713 4.09866 143.52 7.47134 145.326 10.844C145.387 10.9043 145.387 10.9645 145.507 11.0849C145.567 10.9645 145.567 10.844 145.567 10.7838C145.507 7.89293 145.507 5.00206 145.447 2.17141C145.447 1.93051 145.447 1.74983 145.387 1.50892C145.387 1.02711 145.206 0.665755 144.664 0.605528C144.423 0.665755 144.303 0.605529 144.242 0.545303Z" fill="white"/>
<path d="M116.598 10.9645C117.502 7.41111 118.225 3.85775 119.068 0.304393C119.188 0.304393 119.248 0.304393 119.369 0.304393C120.152 3.85775 120.814 7.41111 121.597 11.1452C121.718 10.9042 121.718 10.7838 121.778 10.6633C122.26 7.89292 122.742 5.06228 123.223 2.29186C123.284 1.99073 123.284 1.74983 123.344 1.4487C123.344 1.08734 123.344 0.786204 122.862 0.665751C122.802 0.665751 122.742 0.545297 122.681 0.424844C122.742 0.364618 122.862 0.244168 122.922 0.244168C123.585 0.244168 124.247 0.244168 124.91 0.244168C124.97 0.244168 125.09 0.304392 125.09 0.364619C125.09 0.424845 125.03 0.605525 124.97 0.605525C124.247 0.665752 124.247 1.32824 124.127 1.74983C123.705 3.91798 123.284 6.08613 122.862 8.25428C122.501 10.1815 122.139 12.0485 121.718 13.9758C121.657 14.2167 121.537 14.4576 121.356 14.6985C120.393 11.2054 119.79 7.65202 118.827 4.09866C118.767 4.27934 118.706 4.39979 118.706 4.58047C118.044 7.65202 117.381 10.7236 116.659 13.8553C116.598 14.1565 116.478 14.3974 116.358 14.6985C116.297 14.6985 116.237 14.6985 116.177 14.6985C116.117 14.4576 115.996 14.1565 115.936 13.9156C115.273 10.2418 114.671 6.56794 114.009 2.89413C113.949 2.47254 113.828 1.99073 113.768 1.56915C113.647 1.08734 113.527 0.725979 112.985 0.605526C112.925 0.605526 112.804 0.485072 112.804 0.364619C112.804 0.304393 112.925 0.183938 112.985 0.183938C113.828 0.183938 114.671 0.183938 115.575 0.183938C115.635 0.183938 115.695 0.304392 115.816 0.424845C114.912 0.485071 115.093 1.08734 115.153 1.62937C115.635 4.6407 116.117 7.65202 116.538 10.6633C116.598 10.844 116.598 10.9042 116.598 10.9645Z" fill="white"/>
<path d="M76.849 14.5178C76.9092 14.3371 76.9092 14.2167 76.9695 14.2167C77.5717 14.0962 77.5717 13.6144 77.5717 13.1928C77.6319 11.2656 77.6319 9.33835 77.6319 7.4111C77.6319 7.35087 77.5717 7.23042 77.5717 7.10997C76.2467 7.10997 74.8615 7.10997 73.5365 7.10997C73.4161 7.10997 73.2354 7.29065 73.2354 7.4111C73.2354 9.33835 73.2354 11.3258 73.2956 13.2531C73.2956 13.6747 73.4763 14.036 73.9581 14.036C74.0184 14.036 74.1388 14.2167 74.199 14.2769C74.0786 14.3371 74.0184 14.4576 73.8979 14.4576C73.0547 14.4576 72.2718 14.4576 71.4286 14.4576C71.3684 14.4576 71.3082 14.3974 71.2479 14.3371C71.2479 14.2769 71.2479 14.2167 71.2479 14.2167C71.9707 13.9758 71.9104 13.3735 71.9104 12.7713C71.9104 9.09744 71.9104 5.3634 71.9104 1.68959C71.9104 1.20778 71.9104 0.665742 71.1877 0.545289C71.1275 0.545289 71.0673 0.424834 71.0673 0.364608C71.1877 0.304381 71.2479 0.183927 71.3684 0.183927C71.79 0.183927 72.2116 0.18393 72.6331 0.244157C72.9343 0.244157 73.2956 0.18393 73.5968 0.244157C73.657 0.244157 73.7774 0.364607 73.8377 0.424833C73.7774 0.48506 73.7172 0.605513 73.657 0.66574C73.1752 0.725966 73.1752 1.08732 73.1752 1.38846C73.1752 2.89412 73.1752 4.33955 73.1752 5.84521C73.1752 5.96567 73.3559 6.20657 73.4763 6.20657C74.8013 6.20657 76.1865 6.20657 77.5717 6.20657C77.5717 5.90544 77.6319 5.72476 77.6319 5.48386C77.6319 4.27933 77.6319 3.0748 77.6319 1.87027C77.6319 1.32823 77.6319 0.786193 76.9092 0.66574C76.849 0.66574 76.7888 0.545285 76.7888 0.485059C76.7888 0.424832 76.849 0.364608 76.9092 0.364608C77.7524 0.364608 78.5956 0.364607 79.499 0.424833C79.5592 0.424833 79.5592 0.545287 79.6796 0.66574C78.8365 0.725966 78.8967 1.38846 78.8967 1.93049C78.8967 5.54408 78.8967 9.09744 78.8967 12.711C78.8967 12.8917 78.9569 13.1326 78.9569 13.3133C78.9569 13.7951 79.0774 14.1565 79.6194 14.2167C79.6796 14.2167 79.8001 14.3974 79.8603 14.4576C79.8001 14.5178 79.6796 14.6383 79.6194 14.6383C78.716 14.5178 77.8126 14.5178 76.849 14.5178Z" fill="white"/>
<path d="M164.358 7.11C164.298 7.23045 164.298 7.29068 164.298 7.3509C164.298 9.27815 164.298 11.1452 164.358 13.0724C164.358 13.5542 164.478 14.036 165.081 14.036C165.141 14.036 165.201 14.1565 165.261 14.2769C165.201 14.3372 165.081 14.4576 165.021 14.4576C164.177 14.4576 163.394 14.4576 162.551 14.4576C162.491 14.4576 162.431 14.3372 162.371 14.3372C162.431 14.2769 162.491 14.1565 162.551 14.0963C162.672 13.9156 162.913 13.6747 162.973 13.494C163.033 12.8917 163.093 12.2895 163.093 11.627C163.093 8.37475 163.093 5.12253 163.093 1.8703C163.093 1.32826 163.154 0.66577 162.31 0.605543C162.25 0.605543 162.19 0.424862 162.19 0.424862C162.25 0.364635 162.371 0.244185 162.431 0.244185C163.214 0.244185 163.936 0.244185 164.719 0.244185C164.78 0.244185 164.9 0.364635 164.96 0.424862C164.9 0.485088 164.84 0.545316 164.719 0.665769C164.539 0.846448 164.298 1.02713 164.298 1.20781C164.238 2.83392 164.298 4.46003 164.298 6.2066C164.659 6.2066 165.021 6.2066 165.322 6.2066C166.285 6.2066 167.249 6.2066 168.152 6.2066C168.514 6.2066 168.694 6.08615 168.694 5.72479C168.694 4.52026 168.694 3.25551 168.694 2.05098C168.694 1.02713 168.694 1.02713 167.851 0.545317C168.092 0.183959 170.381 0.183958 170.742 0.605543C169.959 0.545316 169.959 1.14758 169.959 1.62939C169.959 5.42366 169.959 9.21792 170.019 13.0122C170.019 13.5542 170.08 14.036 170.742 14.0963C170.802 14.0963 170.862 14.2167 170.923 14.3372C170.862 14.3974 170.742 14.5179 170.682 14.5179C169.839 14.5179 169.056 14.5179 168.213 14.5179C168.152 14.5179 168.032 14.3974 168.032 14.3974C168.032 14.2769 168.092 14.1565 168.152 14.1565C168.634 14.0963 168.634 13.7349 168.634 13.3735C168.694 11.3861 168.694 9.45883 168.694 7.47136C168.694 7.35091 168.514 7.11 168.393 7.11C167.068 7.11 165.743 7.11 164.358 7.11Z" fill="white"/>
<path d="M89.7978 7.04975C89.7375 8.91677 89.4966 10.7838 88.5932 12.4099C88.1716 13.1929 87.5694 13.8553 86.7262 14.3372C85.341 15.0599 83.8353 14.819 82.8115 13.6144C81.8479 12.5304 81.4263 11.2054 81.1854 9.82017C80.7036 7.23043 80.9445 4.70092 82.2092 2.29186C82.8717 1.02711 83.8955 0.0634869 85.4614 0.00326042C86.9069 -0.0569661 87.8705 0.725976 88.5932 1.93051C89.6171 3.49639 89.7978 5.24296 89.7978 7.04975ZM88.6534 7.77247C88.5932 7.77247 88.533 7.77247 88.533 7.77247C88.533 6.20659 88.4125 4.58047 87.75 3.13503C87.4489 2.47254 86.9671 1.81005 86.4251 1.32824C85.6421 0.605523 84.4978 0.725977 83.8353 1.56915C83.3535 2.17141 82.9319 2.89413 82.7512 3.61685C82.0888 6.14636 82.149 8.67587 82.9319 11.1452C83.1728 11.9281 83.6546 12.7713 84.2569 13.3735C85.2205 14.3974 86.5455 14.2167 87.3285 13.0122C87.5694 12.5906 87.8705 12.169 87.9307 11.6872C88.2319 10.302 88.4125 9.03723 88.6534 7.77247Z" fill="white"/>
<path d="M112.443 6.74861C112.383 8.67586 112.262 10.302 111.539 11.7474C111.178 12.5304 110.636 13.3133 110.034 13.8553C108.588 15.2405 106.541 14.9996 105.336 13.3735C104.613 12.4099 104.192 11.2656 103.951 10.1213C103.469 7.65201 103.59 5.24295 104.553 2.89412C104.915 1.99072 105.517 1.14756 106.36 0.605519C107.625 -0.237651 109.191 -0.117198 110.335 0.906651C111.539 1.99073 112.021 3.43616 112.262 5.00205C112.383 5.60431 112.383 6.32703 112.443 6.74861ZM104.854 6.56794C105.035 7.89292 105.095 8.97699 105.336 10.0611C105.577 11.2054 105.938 12.2894 106.782 13.1326C107.866 14.2167 109.251 14.0962 110.094 12.7713C110.395 12.3497 110.576 11.8679 110.696 11.3258C111.359 8.73609 111.359 6.08613 110.576 3.55662C110.335 2.71345 109.913 1.9305 109.251 1.32823C108.347 0.545291 107.022 0.605518 106.3 1.56914C105.999 1.99073 105.697 2.41231 105.577 2.95435C105.216 4.21911 105.035 5.48386 104.854 6.56794Z" fill="white"/>
<path d="M157.793 7.47133C158.877 7.47133 159.841 7.47133 160.865 7.47133C160.744 7.65201 160.684 7.71224 160.624 7.71224C160.142 7.71224 160.022 8.0736 160.022 8.49518C160.022 9.88039 159.962 11.3258 160.022 12.711C160.082 13.6144 159.721 14.036 158.938 14.3974C156.95 15.3008 154.662 14.5178 153.517 12.4099C152.614 10.6633 152.373 8.73609 152.433 6.74861C152.493 5.30318 152.734 3.91797 153.397 2.65322C154.421 0.485064 156.468 -0.418333 158.817 0.244158C160.022 0.605517 160.022 0.605515 160.022 1.87027C160.022 2.41231 160.022 2.89412 160.022 3.43616C160.022 3.55661 159.962 3.73729 159.901 3.85774C159.841 3.85774 159.781 3.85774 159.721 3.85774C159.66 3.67707 159.66 3.55661 159.6 3.37593C159.359 1.68959 158.396 0.846423 156.709 0.846423C155.685 0.846423 155.023 1.44868 154.662 2.23163C154.3 3.01457 153.999 3.91797 153.879 4.76114C153.577 6.80884 153.698 8.85654 154.481 10.844C154.782 11.627 155.384 12.4099 155.926 13.0724C156.468 13.7349 157.312 13.8553 158.155 13.7349C158.576 13.6747 158.877 13.4338 158.877 12.9519C158.877 11.5065 158.877 10.0611 158.877 8.61563C158.877 8.13382 158.757 7.83269 158.215 7.71224C158.034 7.77246 157.974 7.65201 157.793 7.47133Z" fill="white"/>
<path d="M174.958 1.26803C174.235 1.26803 173.633 1.20781 173.031 1.26803C172.79 1.32826 172.609 1.62939 172.428 1.8703C172.308 2.1112 172.248 2.41234 172.067 2.65324C171.947 1.74985 172.067 0.846449 172.248 0.00327872C174.536 0.48509 176.765 0.183955 178.933 0.183955C178.933 1.02713 178.933 1.93052 178.933 2.83392C178.873 2.83392 178.812 2.89415 178.692 2.89415C178.511 2.35211 178.692 1.56916 177.969 1.38848C177.367 1.26803 176.765 1.20781 176.162 1.14758C176.162 1.38849 176.102 1.44871 176.102 1.56917C176.102 5.18275 176.102 8.79634 176.162 12.4099C176.162 12.6508 176.162 12.952 176.223 13.1929C176.283 13.6145 176.403 13.9758 176.885 14.036C177.006 14.036 177.066 14.1565 177.126 14.2769C177.006 14.3372 176.885 14.4576 176.825 14.5179C175.982 14.5179 175.139 14.5179 174.175 14.5179C174.235 14.3372 174.235 14.2167 174.295 14.2167C174.837 14.0963 174.837 13.6747 174.837 13.3133C174.898 12.1088 174.898 10.9645 174.898 9.75996C174.898 7.17022 174.898 4.52026 174.898 1.93052C174.958 1.74984 174.958 1.50894 174.958 1.26803Z" fill="white"/>
<path d="M103.168 11.8679C103.048 12.6508 102.987 13.4338 102.867 14.2167C102.867 14.3372 102.445 14.5179 102.204 14.5179C101.421 14.5179 100.578 14.4576 99.7953 14.4576C99.2532 14.4576 98.7112 14.5179 98.1692 14.4576C98.0487 14.4576 97.9283 14.3372 97.8078 14.2769C97.868 14.2167 97.9885 14.0963 98.0487 14.036C98.1692 13.8554 98.4101 13.6747 98.4101 13.4338C98.4703 12.4702 98.5305 11.4463 98.5305 10.4827C98.5305 7.65204 98.5305 4.82139 98.5305 1.99075C98.5305 1.38848 98.651 0.725996 97.7476 0.605543C97.6874 0.605543 97.6271 0.424863 97.6271 0.364636C97.6271 0.30441 97.7476 0.244185 97.8078 0.244185C98.651 0.244185 99.4339 0.244185 100.277 0.244185C100.337 0.244185 100.458 0.364635 100.458 0.424862C100.458 0.485088 100.337 0.605543 100.277 0.605543C99.6146 0.605543 99.6748 1.08735 99.6748 1.50894C99.6748 3.0146 99.6748 4.52026 99.6748 6.02592C99.6748 8.0134 99.6748 9.94064 99.7351 11.9281C99.7953 13.4338 100.518 13.9758 102.024 13.5542C102.566 13.4338 102.626 12.952 102.746 12.5304C102.807 12.2895 102.867 12.0486 102.927 11.8077C102.987 11.8679 103.108 11.8679 103.168 11.8679Z" fill="white"/>
<path d="M90.942 0.485087C91.1829 0.424861 91.3034 0.304411 91.4841 0.304411C92.1465 0.304411 92.8693 0.304411 93.5318 0.304411C93.6522 0.304411 93.7727 0.424861 93.9533 0.485087C93.8329 0.545314 93.7124 0.605542 93.592 0.665769C93.4715 0.786221 93.2306 0.906673 93.1704 1.02713C93.1102 1.26803 93.1102 1.56917 93.1102 1.8703C93.1102 5.0623 93.1102 8.2543 93.1102 11.4463C93.1102 11.5668 93.1102 11.7474 93.1102 11.8679C93.1704 13.4338 93.4715 13.7349 95.0374 13.6145C95.6999 13.5542 95.9408 13.3735 96.0613 12.5304C96.1215 12.2895 96.1817 12.0486 96.2419 11.8077C96.3022 11.8077 96.4226 11.8077 96.4828 11.8679C96.3624 12.6508 96.3022 13.4338 96.1817 14.2167C96.1817 14.3372 95.7601 14.5179 95.5192 14.5179C94.6158 14.5179 93.6522 14.4576 92.7488 14.4576C92.267 14.4576 91.725 14.4576 91.1829 14.4576C91.1829 14.3372 91.1829 14.2167 91.2431 14.2167C91.7852 14.036 91.8454 13.6145 91.8454 13.1326C91.8454 9.27815 91.8454 5.42366 91.8454 1.50894C91.9056 0.966902 91.8454 0.966899 90.942 0.485087Z" fill="white"/>
<path d="M151.048 0.605529C150.205 0.665755 150.265 1.20779 150.265 1.74983C150.265 5.36342 150.265 8.97701 150.265 12.6508C150.265 12.8917 150.265 13.1326 150.325 13.3735C150.385 13.7951 150.506 14.0963 150.988 14.1565C151.108 14.1565 151.168 14.2769 151.289 14.3974C151.168 14.4576 151.048 14.5781 150.928 14.5781C150.145 14.5781 149.422 14.5781 148.639 14.5781C148.518 14.5781 148.458 14.4576 148.338 14.3974C148.398 14.3372 148.518 14.2167 148.579 14.1565C148.699 13.9758 148.94 13.7951 149 13.5542C149.06 13.0122 149.121 12.4099 149.121 11.8076C149.121 8.61565 149.121 5.48387 149.121 2.29187C149.121 1.99073 149.121 1.74983 149.06 1.4487C149.06 1.08734 148.94 0.786207 148.518 0.665754C148.458 0.665754 148.338 0.5453 148.338 0.424848C148.338 0.364621 148.458 0.244171 148.518 0.244171C149.301 0.244171 150.084 0.244171 150.867 0.244171C150.928 0.304397 150.928 0.424849 151.048 0.605529Z" fill="white"/>
</svg>
