<svg width="217" height="18" viewBox="0 0 217 18" fill="none" xmlns="http://www.w3.org/2000/svg">
<path d="M108.255 17.5277C108.255 17.2129 108.418 16.8981 108.418 16.7407C108.092 16.2685 107.765 15.7963 107.112 15.4814C107.112 15.324 107.275 15.324 107.275 15.1666C107.275 14.6944 107.112 14.3796 106.949 14.0648C106.949 13.9074 106.949 13.75 106.949 13.75C107.439 13.9074 107.929 14.0648 108.418 14.0648C108.255 14.0648 107.929 13.75 108.255 13.5926L108.418 13.4352C107.602 12.9629 106.622 12.8055 105.806 12.6481C105.153 12.4907 104.5 12.4907 103.847 12.4907C100.254 11.7037 96.4989 12.0185 92.7434 11.074C88.988 10.1296 85.7224 8.0833 82.1302 7.13886C82.1302 7.13886 82.1302 7.13886 81.9669 6.98145C83.2732 6.82404 84.4161 6.35182 84.2528 4.93515C84.0896 3.8333 83.1099 3.51849 82.1302 3.67589C81.6404 3.99071 80.6607 4.77775 81.6404 5.24997H81.8036L81.9669 5.09256C82.1302 4.93515 82.2935 4.77775 82.62 4.77775C82.7833 4.93515 83.1099 4.93515 83.2732 5.09256C83.5997 5.72219 82.62 6.037 82.1302 6.037C81.3138 6.037 80.6607 5.8796 79.8443 5.72219C76.2521 3.67589 71.8435 2.41663 67.9248 2.57404C65.149 2.73145 62.3732 3.04626 59.7607 3.67589C57.8014 4.14812 55.6787 5.09256 53.5561 5.56478C53.0662 5.40737 52.5764 5.56478 52.0865 5.09256C51.5967 4.62034 51.4334 3.99071 51.4334 3.51849C51.4334 2.88886 51.5967 2.25923 52.4131 2.10182C52.7397 2.10182 53.0662 2.10182 53.2295 2.25923C53.8826 2.41663 53.8826 3.51849 52.903 3.20367C52.5764 3.20367 52.4131 3.51849 52.7397 3.67589C53.7194 4.14812 54.699 3.36108 54.5358 2.41663C54.3725 1.15738 52.903 0.685154 51.9233 1.15738C50.617 1.6296 50.617 3.20367 50.9436 4.30552C51.1069 4.77775 51.4334 5.24997 51.9233 5.56478C51.1069 5.56478 50.1272 5.56478 49.3108 5.24997C48.8209 5.09256 48.8209 4.93515 48.6577 4.46293C48.6577 4.30552 48.4944 4.14812 48.1678 4.30552C47.3514 4.77775 48.1678 5.8796 49.1475 5.8796C50.7803 6.50923 52.4131 6.35182 54.2092 6.037C56.8217 6.66663 60.0873 5.8796 62.6998 5.24997C66.7818 4.46293 70.374 4.14812 74.456 4.30552C75.599 4.77775 76.5786 5.24997 77.7216 5.72219C67.1084 3.51849 56.4951 10.1296 45.7186 9.18515C44.7389 8.87034 43.9225 8.55552 43.4327 7.61108C43.1061 6.82404 43.1061 6.037 43.7592 5.40737C44.2491 4.93515 45.0655 4.77775 45.5553 5.40737C46.0452 5.8796 45.392 6.50923 44.9022 6.19441C44.5756 6.037 43.9225 6.35182 44.2491 6.82404C45.0655 7.92589 47.1881 7.61108 47.0248 6.037C46.8616 4.62034 45.0655 3.67589 43.596 4.30552C42.1264 5.09256 41.7999 6.82404 42.453 8.24071C42.453 8.39812 42.6163 8.39812 42.6163 8.55552C42.453 8.55552 42.453 8.39812 42.2897 8.24071C41.6366 7.76849 40.9835 6.98145 40.6569 6.19441C40.1671 4.93515 40.4936 3.67589 41.7999 3.20367C42.7796 2.73145 43.9225 3.04626 45.0655 3.04626C45.392 3.04626 45.5553 2.57404 45.2288 2.41663C43.1061 1.47219 39.8405 2.41663 39.3507 4.93515C39.1874 6.19441 39.8405 7.29626 40.6569 8.24071C40.8202 8.39812 40.9835 8.71293 41.31 8.87034C34.1257 7.29626 26.6148 4.77775 19.2671 4.30552C12.8992 1.94441 6.8578 0.999968 0.163293 2.57404C1.23531e-05 2.57404 1.23531e-05 2.88886 0.163293 2.88886C3.42891 2.73145 6.69452 2.25923 9.96013 2.73145C12.0828 3.04626 14.2054 3.51849 16.1648 4.14812C13.7156 4.14812 11.2664 4.46293 8.81717 5.24997C8.49061 5.40737 8.65389 5.8796 8.98045 5.72219C12.4093 5.09256 15.675 4.93515 18.7773 5.09256C18.9406 5.09256 18.9406 5.09256 19.1039 5.24997C19.1039 5.24997 19.1039 5.24997 19.2671 5.24997C23.6757 7.45367 28.2476 8.87034 33.146 9.65737C37.5546 10.4444 43.4327 11.5463 47.8413 10.4444C57.1482 10.6018 66.4552 5.40737 75.599 6.66663C75.2724 6.82404 74.9458 6.98145 74.6193 7.13886C73.8029 7.76849 73.8029 9.18515 74.456 9.97219C75.1091 10.7592 76.4154 10.7592 77.0685 9.97219C77.5583 9.49997 77.5583 7.92589 76.4154 8.24071C76.2521 8.24071 76.0888 8.55552 76.2521 8.71293C76.5787 8.87034 76.7419 9.02775 76.5787 9.34256C76.5787 9.65737 76.0888 9.81478 75.9255 9.81478C75.2724 9.81478 74.9458 9.02774 75.1091 8.39811C75.4357 7.61108 76.9052 7.45367 77.7216 7.13886C78.538 7.29626 79.3544 7.61108 80.1708 7.92589C80.4974 8.0833 80.6607 7.92589 80.8239 7.92589C84.5794 9.49997 88.4981 11.3889 92.4169 12.3333C96.8254 13.4352 101.397 12.8055 105.806 14.2222C105.969 14.537 106.296 14.8518 106.296 15.1666C105.969 15.1666 105.806 15.0092 105.479 15.1666C104.5 15.324 104.5 16.7407 105.479 16.5833C105.969 16.5833 106.459 16.5833 106.949 16.7407C107.439 17.0555 107.765 17.3703 108.092 17.8426C108.255 18 108.418 18 108.582 18C108.418 17.8426 108.255 17.6852 108.255 17.5277ZM56.1686 5.56478C57.9647 4.93515 59.5975 4.30552 61.2303 3.99071C63.8428 3.51849 66.7818 3.04626 69.5576 3.20367C64.9857 3.51849 60.5771 5.09256 56.1686 5.56478ZM41.31 9.97219C38.371 9.81478 35.5952 9.34256 32.6561 8.87034C28.7374 8.0833 24.982 6.82404 21.2265 5.40737C23.839 5.72219 26.4515 6.19441 29.2273 6.82404C34.1257 8.0833 39.0241 9.34256 43.9225 10.1296C43.1061 9.97219 42.2897 9.97219 41.31 9.97219Z" fill="white"/>
<path d="M216.837 2.57407C210.142 0.999997 204.101 1.78703 197.733 4.30555C190.222 4.77777 182.874 7.29629 175.363 8.71296C175.69 8.55555 175.853 8.24074 176.017 8.08333C176.833 7.13889 177.486 6.03703 177.323 4.77777C176.996 2.25926 173.567 1.47222 171.445 2.25926C171.118 2.41666 171.281 2.88889 171.608 2.88889C172.751 2.88889 173.894 2.57407 174.874 3.04629C176.18 3.67592 176.506 4.93518 176.017 6.03703C175.69 6.82407 175.037 7.61111 174.384 8.08333C174.22 8.24074 174.22 8.24074 174.057 8.39814C174.057 8.24074 174.22 8.24074 174.22 8.08333C175.037 6.66666 174.71 4.93518 173.078 4.14814C171.608 3.51852 169.975 4.46296 169.649 5.87963C169.485 7.4537 171.608 7.76852 172.424 6.66666C172.751 6.19444 172.098 5.87963 171.771 6.03703C171.118 6.35185 170.465 5.72222 171.118 5.25C171.608 4.77777 172.424 4.93518 172.914 5.25C173.567 5.87963 173.567 6.66666 173.241 7.4537C172.751 8.55555 171.935 8.87037 170.955 9.02777C160.342 9.81481 149.565 3.36111 139.115 5.56481C140.095 5.09259 141.238 4.46296 142.381 4.14814C146.463 3.99074 150.055 4.30555 154.137 5.09259C156.749 5.56481 159.852 6.50926 162.628 5.87963C164.424 6.35185 166.056 6.35185 167.689 5.72222C168.506 5.72222 169.485 4.62037 168.669 4.14814C168.506 3.99074 168.342 4.14814 168.179 4.30555C168.179 4.77777 168.016 4.93518 167.526 5.09259C166.71 5.4074 165.73 5.4074 164.913 5.4074C165.403 5.09259 165.73 4.46296 165.893 4.14814C166.383 3.04629 166.22 1.47222 164.913 0.999997C163.771 0.527774 162.464 0.999997 162.301 2.25926C162.138 3.2037 163.117 3.99074 164.097 3.51852C164.424 3.36111 164.097 3.04629 163.934 3.04629C162.954 3.2037 162.954 2.10185 163.607 1.78703C163.771 1.62963 164.26 1.62963 164.424 1.62963C165.24 1.78703 165.403 2.25926 165.403 3.04629C165.403 3.67592 165.24 4.30555 164.75 4.62037C164.26 4.93518 163.771 4.93518 163.281 5.09259C161.158 4.62037 159.035 3.67592 157.076 3.2037C154.464 2.57407 151.688 2.25926 148.912 2.10185C144.993 1.94444 140.585 3.2037 136.992 5.25C136.176 5.4074 135.523 5.72222 134.707 5.56481C134.217 5.56481 133.237 5.25 133.564 4.62037C133.727 4.46296 134.053 4.46296 134.217 4.30555C134.543 4.30555 134.707 4.46296 134.87 4.62037L135.033 4.77777H135.196C136.176 4.46296 135.196 3.51852 134.543 3.36111C133.564 3.04629 132.584 3.51852 132.421 4.62037C132.257 6.03703 133.4 6.50926 134.707 6.66666C134.707 6.66666 134.707 6.66666 134.543 6.82407C130.951 7.76852 127.685 9.81481 123.93 10.7593C120.338 11.7037 116.419 11.3889 112.827 12.1759C112.174 12.0185 111.521 12.1759 110.868 12.3333C110.051 12.4907 108.908 12.6481 108.255 13.1204C108.255 13.1204 108.092 13.1204 108.092 13.2778C107.929 13.4352 108.092 13.75 108.255 13.75C108.745 13.75 109.235 13.5926 109.725 13.4352C109.725 13.5926 109.725 13.75 109.725 13.75C109.561 14.0648 109.398 14.3796 109.398 14.8518C109.398 15.0093 109.398 15.1667 109.561 15.1667C109.071 15.4815 108.582 15.9537 108.255 16.4259C108.092 16.7407 108.092 16.8981 108.092 17.213C108.092 17.3704 108.255 17.5278 108.255 17.5278C108.418 17.5278 108.582 17.5278 108.745 17.3704C109.071 16.8981 109.235 16.4259 109.888 16.2685C110.378 16.1111 110.868 16.1111 111.357 16.1111C112.337 16.1111 112.337 14.8518 111.357 14.6944C111.031 14.6944 110.868 14.6944 110.541 14.6944C110.541 14.3796 110.704 14.0648 111.031 13.75C115.276 12.1759 120.011 12.8056 124.42 11.8611C128.339 10.9167 132.257 9.18518 136.013 7.4537C136.176 7.61111 136.339 7.61111 136.666 7.4537C137.482 7.13889 138.299 6.82407 139.115 6.66666C139.932 6.98148 141.401 6.98148 141.728 7.92592C141.891 8.39814 141.728 9.34259 140.911 9.34259C140.585 9.34259 140.258 9.18518 140.258 8.87037C140.095 8.55555 140.258 8.55555 140.421 8.24074C140.585 8.08333 140.421 7.76852 140.258 7.76852C139.278 7.4537 139.278 9.02777 139.605 9.5C140.258 10.287 141.564 10.287 142.217 9.5C142.871 8.71296 142.871 7.29629 142.054 6.66666C141.891 6.50926 141.564 6.35185 141.075 6.19444C150.218 4.93518 159.525 10.1296 168.832 9.97222C173.241 11.0741 179.119 9.97222 183.527 9.18518C188.426 8.39814 192.998 6.98148 197.406 4.77777C197.406 4.77777 197.406 4.77777 197.57 4.77777C197.733 4.77777 197.733 4.77777 197.896 4.62037C201.162 4.46296 204.264 4.62037 207.693 5.25C208.02 5.25 208.183 4.77777 207.856 4.77777C205.407 4.14814 202.958 3.83333 200.509 3.67592C202.468 3.04629 204.591 2.41666 206.713 2.25926C209.979 1.94444 213.245 2.25926 216.51 2.41666C217 2.88889 217 2.57407 216.837 2.57407ZM155.77 3.99074C157.403 4.30555 159.035 4.93518 160.831 5.56481C156.423 5.25 151.851 3.51851 147.442 3.2037C150.382 3.04629 153.157 3.51851 155.77 3.99074ZM184.181 8.87037C181.405 9.5 178.466 9.81481 175.527 9.97222C174.71 9.97222 173.731 9.97222 172.914 9.97222C177.813 9.18518 182.874 7.92592 187.609 6.66666C190.385 6.03703 192.998 5.56481 195.61 5.25C192.018 6.82407 188.263 7.92592 184.181 8.87037Z" fill="white"/>
</svg>
