<svg width="500" height="234" viewBox="0 0 500 234" fill="none" xmlns="http://www.w3.org/2000/svg">
<path d="M169.461 9.57001C168.244 7.23096 163.19 9.57001 164.781 12.3769C165.062 12.9382 165.81 12.8447 166.091 12.3769C166.185 12.1898 166.278 11.9091 166.466 11.7219C167.589 10.3185 168.899 11.5348 168.244 13.0318C168.057 13.3125 167.963 13.4996 167.869 13.6867C164.594 13.0318 161.505 11.8155 158.323 10.7863C156.17 10.1314 151.116 9.1022 150.835 9.1022C146.342 8.72795 142.505 10.0378 138.48 10.5056C136.047 10.7863 133.613 10.9734 131.086 10.8799C128.185 10.7863 125.377 10.0378 122.475 9.75714C122.101 9.75714 118.17 9.66357 116.672 9.8507C115.924 9.94426 114.52 10.7863 114.52 10.7863C111.805 13.2189 113.303 16.7743 115.924 18.0842C109.746 18.8327 102.727 21.3588 96.6429 17.4292C96.5493 17.4292 96.6429 17.3357 96.5493 17.2421C94.9582 15.2773 94.0222 13.4061 94.6774 10.8799C95.3326 8.44727 97.1109 5.73396 99.8252 5.54684C101.884 5.35972 106.096 6.3889 106.751 8.82151C107.032 9.8507 106.377 11.7219 105.628 12.4704C104.786 13.9674 103.569 13.4996 101.978 10.8799C102.259 10.5056 102.633 10.1314 103.101 9.75714C103.756 9.19576 103.195 8.16658 102.446 8.16658C97.0173 8.16658 97.7661 16.1194 102.727 16.5872C107.781 17.055 111.712 10.0378 108.904 5.92109C105.722 1.24298 97.1109 0.120236 93.6478 4.79834C90.9336 8.3537 89.904 14.8095 93.6478 18.552C94.4902 19.7683 96.1749 20.3297 97.4853 20.7975C98.702 21.2653 100.2 21.4524 101.51 21.8267C120.697 26.0369 134.924 11.3477 150.741 11.6284C150.929 11.6284 156.451 12.8447 158.791 13.5932C161.973 14.6224 165.155 15.3709 168.525 15.558C168.993 15.7451 171.988 14.3417 169.461 9.57001ZM127.717 14.8095C125.377 15.8387 123.131 16.5872 120.978 17.1485C121.914 15.8387 121.633 13.7803 120.323 12.8447C119.012 11.9091 116.392 12.2833 116.579 14.2481C116.579 14.6224 116.953 14.9966 117.421 14.9031C117.983 14.8095 119.293 14.1546 119.48 15.1837C119.2 15.4644 119.012 15.8387 118.732 16.1194C118.264 16.3065 117.889 16.3065 117.421 16.1194C116.111 15.8387 114.988 14.1546 115.456 12.8447C119.48 10.1314 125.19 12.9382 129.402 13.5932C129.776 13.6867 130.15 13.6867 130.525 13.6867C129.495 14.061 128.653 14.4352 127.717 14.8095Z" fill="white"/>
<path d="M239.751 18.1777C241.53 16.5872 241.53 13.9674 240.968 11.8155C240.406 9.66358 239.003 8.35371 236.943 7.60521C232.638 6.10822 227.116 8.07302 226.741 13.2189C226.461 16.8679 229.924 19.6747 233.2 18.6455C230.392 19.7683 227.303 20.4232 224.495 20.891C220.938 21.546 217.382 20.891 213.919 21.4524L213.825 21.3588C208.771 19.6747 203.998 17.9906 201.283 13.0318C199.879 10.4121 199.131 7.32453 201.19 4.98547C203.155 2.83354 205.495 2.83354 208.116 3.11423C208.958 3.95629 209.707 4.79835 210.175 5.92109C210.643 7.32453 211.204 9.47646 208.865 9.57002C208.303 9.57002 207.086 9.19577 206.993 8.44727C206.899 7.79234 207.554 7.41809 207.648 6.95028C207.835 6.20178 207.554 5.54685 206.899 5.1726C206.337 4.79835 205.495 4.89191 204.934 5.45328C203.155 7.23096 203.342 10.1314 205.402 11.6284C207.367 13.1254 210.269 12.4704 212.047 11.067C214.012 9.57002 214.2 7.1374 213.17 4.98547C212.608 3.76917 211.392 2.27217 209.988 1.61724C209.894 1.43011 209.801 1.33655 209.707 1.24299C204.466 -2.4995 196.978 3.20779 197.071 9.00865C197.071 14.9966 201.751 19.394 206.993 21.8267C204.653 22.0138 202.219 22.2009 199.879 22.2945C195.2 22.388 190.52 21.6395 185.84 21.4524C183.5 20.5168 181.067 19.9554 178.633 19.4876C176.387 16.8679 172.456 14.061 174.889 10.3185C176.387 8.07302 179.663 7.79234 181.535 9.66358C182.564 10.6928 183.126 12.3769 182.377 13.6868C180.786 16.4936 177.323 14.5288 177.978 11.8155C178.352 10.225 175.919 9.57002 175.544 11.1606C174.702 15.3709 178.727 19.1134 182.845 16.8679C187.244 14.4352 185.278 8.16659 181.254 6.48247C177.136 4.70479 172.549 7.04384 171.426 11.3477C170.865 13.4996 171.613 16.2129 173.017 18.3649C172.549 18.2713 171.988 18.1777 171.52 17.9906C164.406 16.1194 157.293 13.5932 149.993 12.4704C149.993 12.4704 149.993 12.4704 149.899 12.4704C146.623 11.8155 142.318 14.061 141.101 17.055C139.603 20.7975 143.254 24.1657 146.81 24.4464C149.712 24.7271 153.456 22.1073 151.865 18.9262C151.209 17.5228 149.805 16.6807 148.214 16.8679C146.904 16.9614 145.5 17.897 145.594 19.3005C145.594 19.6747 145.968 19.9554 146.342 19.8619C146.904 19.6747 147.466 19.1134 148.027 19.0198C149.244 18.7391 150.461 19.8619 149.805 20.9846C148.776 22.6687 145.874 21.9202 144.658 20.891C142.786 19.3005 143.535 17.055 145.594 16.0258C147.185 15.1837 148.776 15.558 150.461 15.558C150.741 15.558 164.032 19.394 170.49 21.3588C174.796 22.7623 179.101 23.4172 183.406 23.9786C188.461 24.54 193.702 25.9434 198.663 25.8498C204.653 25.8498 224.402 24.6335 227.771 23.885C230.766 23.1365 234.697 22.388 237.411 20.4232C238.067 20.1425 238.722 19.8619 239.564 20.4232C240.5 20.9846 241.342 22.4816 240.781 23.6043C240.406 24.4464 239.47 24.54 239.096 23.6979C238.815 23.043 238.909 23.043 239.19 22.4816C239.377 21.8267 238.722 21.2653 238.16 21.4524C235.914 22.2009 236.663 25.1013 238.16 26.3176C240.313 27.9082 243.027 26.5048 243.589 24.0721C244.244 21.4524 242.185 18.7391 239.751 18.1777ZM231.515 16.2129C230.485 15.9322 229.924 14.9031 229.924 13.8739C229.83 11.7219 231.889 10.3185 233.855 10.225C235.633 10.225 237.411 10.7863 237.973 12.564C238.347 13.4996 238.254 14.4352 238.16 15.4644C237.131 16.4936 235.914 17.1486 234.603 17.8035C237.505 15.7451 235.259 9.66358 232.451 12.3769C231.983 12.8447 232.357 13.4996 232.919 13.5932C234.978 13.6868 233.106 16.6807 231.515 16.2129Z" fill="white"/>
<path d="M331.382 15.6516C334.751 15.4644 337.933 14.7159 341.116 13.6867C343.456 12.9383 348.978 11.7219 349.165 11.7219C364.983 11.4413 379.209 26.1305 398.396 21.9202C399.707 21.6395 401.204 21.3588 402.421 20.891C403.825 20.4232 405.416 19.8618 406.259 18.6455C409.909 14.9031 408.879 8.44727 406.259 4.89191C402.702 0.213803 394.091 1.33655 391.002 6.01465C388.288 10.1314 392.126 17.1485 397.18 16.6807C402.14 16.2129 402.889 8.26015 397.461 8.26015C396.712 8.26015 396.15 9.28933 396.805 9.8507C397.18 10.2249 397.554 10.5992 397.929 10.9734C396.337 13.4996 395.121 14.061 394.278 12.564C393.529 11.9091 392.874 10.0378 393.155 8.91508C393.81 6.48246 398.022 5.45328 400.081 5.64041C402.795 5.82753 404.574 8.54083 405.229 10.9734C405.978 13.4996 404.948 15.3709 403.357 17.3357C403.263 17.4292 403.357 17.5228 403.263 17.5228C397.273 21.4524 390.254 18.9262 383.983 18.1777C386.603 16.8679 388.195 13.3125 385.387 10.8799C385.387 10.8799 383.983 10.0378 383.234 9.94426C381.83 9.75714 377.805 9.8507 377.431 9.8507C374.53 10.1314 371.722 10.9734 368.82 10.9734C366.293 11.067 363.86 10.8799 361.426 10.5992C357.401 10.1314 353.564 8.72796 349.071 9.19577C348.791 9.19577 343.736 10.225 341.584 10.8799C338.401 11.9091 335.313 13.1254 332.037 13.7803C331.943 13.5932 331.756 13.4061 331.663 13.1254C330.914 11.6284 332.224 10.4121 333.441 11.8155C333.534 12.0026 333.628 12.2833 333.815 12.4704C334.096 12.9383 334.845 13.0318 335.126 12.4704C336.623 9.66358 331.569 7.32452 330.446 9.66358C328.012 14.3417 331.007 15.7451 331.382 15.6516ZM369.569 13.6867C369.943 13.6867 370.318 13.5932 370.692 13.5932C374.904 12.9383 380.707 10.1314 384.638 12.8447C385.106 14.1546 383.983 15.8387 382.672 16.1194C382.204 16.3065 381.83 16.3065 381.362 16.1194C381.081 15.8387 380.894 15.4644 380.613 15.1837C380.8 14.1546 382.111 14.7159 382.672 14.9031C383.14 14.9966 383.421 14.7159 383.515 14.2481C383.702 12.2833 380.988 12.0026 379.771 12.8447C378.461 13.7803 378.18 15.8387 379.116 17.1485C376.963 16.5872 374.717 15.8387 372.377 14.8095C371.347 14.4352 370.505 14.061 369.569 13.6867Z" fill="white"/>
<path d="M256.318 23.9786C256.879 26.4112 259.594 27.8146 261.746 26.2241C263.244 25.1013 263.993 22.1073 261.746 21.3588C261.185 21.1717 260.436 21.8266 260.717 22.388C260.904 22.9494 261.091 22.9494 260.81 23.6043C260.436 24.5399 259.5 24.3528 259.126 23.5108C258.564 22.388 259.406 20.9846 260.342 20.3297C261.278 19.7683 261.933 20.049 262.495 20.3297C265.209 22.2945 269.14 23.1365 272.135 23.7914C275.505 24.5399 295.254 25.7563 301.244 25.7563C306.204 25.7563 311.446 24.4464 316.5 23.885C320.805 23.4172 325.111 22.6687 329.416 21.2653C335.781 19.2069 349.071 15.4644 349.446 15.4644C351.13 15.4644 352.722 15.0902 354.313 15.9322C356.372 16.9614 357.027 19.1133 355.249 20.7975C354.032 21.8266 351.224 22.5751 350.101 20.891C349.352 19.6747 350.569 18.6455 351.879 18.9262C352.441 19.0198 353.002 19.5812 353.564 19.7683C353.938 19.8618 354.219 19.5812 354.313 19.2069C354.406 17.8035 353.002 16.8679 351.692 16.7743C350.194 16.5872 348.697 17.4292 348.042 18.8327C346.544 22.0138 350.194 24.6335 353.096 24.3528C356.653 23.9786 360.303 20.7039 358.805 16.9614C357.682 13.9674 353.283 11.7219 350.007 12.3769C350.007 12.3769 350.007 12.3769 349.914 12.3769C342.613 13.4996 335.593 16.0258 328.387 17.897C327.919 17.9906 327.357 18.0842 326.889 18.2713C328.293 16.1194 329.042 13.4061 328.48 11.2541C327.357 6.95027 322.771 4.61121 318.653 6.38889C314.722 8.07301 312.662 14.3417 317.062 16.7743C321.086 19.0198 325.204 15.2773 324.362 11.067C323.988 9.47644 321.554 10.1314 321.928 11.7219C322.584 14.4352 319.121 16.4 317.529 13.5932C316.781 12.1897 317.342 10.5992 318.372 9.57001C320.244 7.79233 323.613 8.07301 325.017 10.2249C327.451 13.9674 323.52 16.6807 321.273 19.394C318.84 19.9554 316.406 20.5168 314.066 21.3588C309.387 21.4524 304.707 22.2945 300.027 22.2009C297.687 22.1073 295.347 21.9202 292.914 21.7331C298.249 19.3005 302.835 14.903 302.835 8.91507C302.835 3.20778 295.347 -2.49951 290.199 1.14942C290.012 1.24298 290.012 1.4301 289.919 1.52366C288.515 2.1786 287.392 3.58203 286.736 4.8919C285.707 7.04383 285.894 9.47645 287.86 10.9734C289.638 12.3769 292.539 12.9382 294.505 11.5348C296.564 9.94425 296.751 7.13739 294.973 5.35971C294.505 4.8919 293.662 4.70478 293.007 5.07902C292.352 5.45327 292.071 6.10821 292.259 6.8567C292.446 7.41808 293.101 7.79233 292.914 8.3537C292.82 9.00863 291.603 9.47644 291.042 9.47644C288.795 9.38288 289.263 7.13739 289.731 5.82752C290.199 4.70478 290.948 3.76915 291.791 3.02066C294.318 2.73997 296.751 2.73997 298.717 4.8919C300.869 7.23095 300.121 10.3185 298.623 12.9382C295.909 17.897 291.042 19.4876 286.081 21.2653C285.988 21.2653 285.988 21.3588 285.988 21.3588C282.525 20.7975 278.968 21.4524 275.411 20.7975C272.51 20.2361 269.421 19.6747 266.707 18.552C269.983 19.4876 273.446 16.6807 273.165 13.1254C272.791 8.07301 267.268 6.01465 262.963 7.51164C260.904 8.26014 259.5 9.57001 258.938 11.7219C258.377 13.8739 258.377 16.4936 260.155 18.0842C257.815 18.7391 255.756 21.4524 256.318 23.9786ZM266.988 13.6867C267.549 13.6867 267.924 12.9382 267.456 12.4704C264.648 9.75713 262.495 15.7451 265.303 17.897C263.993 17.2421 262.776 16.4936 261.746 15.558C261.653 14.6224 261.559 13.5932 261.933 12.6576C262.589 10.8799 264.273 10.2249 266.052 10.3185C268.017 10.4121 270.076 11.8155 269.983 13.9674C269.983 14.9966 269.421 16.0258 268.392 16.3065C266.894 16.6807 265.022 13.6867 266.988 13.6867Z" fill="white"/>
<path d="M249.953 5.45328C246.116 5.45328 243.027 9.75714 243.027 15.2773C243.027 20.7975 246.022 25.1013 249.953 25.1013C253.884 25.1013 256.879 20.7975 256.879 15.2773C256.879 9.75714 253.884 5.45328 249.953 5.45328ZM249.953 7.41808C251.544 7.41808 252.948 8.72795 253.884 10.5992C252.387 10.0378 250.702 9.94426 249.111 10.0378C248.268 10.1314 247.052 10.2249 246.116 10.5992C246.958 8.72795 248.456 7.41808 249.953 7.41808ZM245.461 12.4704C246.677 12.564 247.988 12.0962 249.111 12.0026C251.264 11.9091 252.948 12.1898 254.727 13.3125C254.82 13.9674 254.914 14.6224 254.914 15.2773C254.914 16.3065 254.727 17.3357 254.539 18.2713C251.919 17.1485 248.081 17.055 245.554 18.4584C245.273 17.5228 245.086 16.4 245.086 15.2773C245.086 14.3417 245.18 13.4061 245.461 12.4704ZM249.953 23.2301C248.362 23.2301 246.958 21.9202 246.022 19.9554C246.771 19.8618 247.52 19.5812 248.268 19.4876C250.047 19.3005 252.106 19.3005 253.697 20.049C253.791 20.049 253.791 20.049 253.884 20.049C252.948 21.9202 251.544 23.2301 249.953 23.2301Z" fill="white"/>
<path d="M85.1306 168.305C83.6331 167.931 80.9188 167.65 79.4213 168.773C70.0617 172.141 58.3622 172.422 47.7858 172.516C46.3819 171.674 44.6971 171.674 43.106 171.206C40.6725 170.551 38.239 169.428 36.1799 167.838C34.776 166.621 33.1848 165.031 33.5592 162.879C33.84 161.288 35.4311 159.978 37.1159 160.072C38.4262 160.165 39.3622 160.82 40.0173 161.943C39.8301 162.692 39.6429 163.534 39.3622 164.282C38.5198 164.563 37.303 163.159 36.6479 162.785C36.2735 162.598 35.8055 162.692 35.5247 163.066L35.1503 163.534C34.8695 163.908 34.8695 164.563 35.1503 164.937C37.303 167.744 42.638 167.744 43.0124 163.44C43.3868 159.043 38.0518 156.236 34.4016 158.013C29.909 160.165 30.2833 165.592 33.2784 168.867C34.308 170.083 36.1799 171.486 38.3326 172.609C32.9976 172.609 27.7562 172.328 22.5149 171.58C12.5001 169.989 3.60847 166.995 4.91881 155.3C5.1996 154.926 5.48039 154.552 5.76118 154.271C7.5395 152.587 10.2538 151.464 12.5937 152.68C14.4656 153.616 16.8055 156.61 15.9631 158.762C15.4016 160.353 13.9976 161.101 12.7809 159.604C12.1257 158.762 12.1257 157.452 12.0321 156.423C11.8449 155.207 9.973 155.019 9.41143 156.049C7.53951 159.604 10.441 165.031 14.7464 164.75C19.8006 164.469 21.3917 158.013 19.8942 154.084C18.2094 149.593 13.4361 146.131 8.56906 147.254C5.10601 148.002 -0.603349 152.119 0.0518233 156.984C1.45576 168.025 7.53951 174.2 18.771 175.697C29.5346 177.1 41.2341 176.445 51.9976 175.884C61.17 175.416 71.9336 175.042 80.3572 171.019C80.5444 170.925 80.7316 170.925 81.0124 170.831C82.1355 170.551 83.1651 170.831 84.2882 171.112C85.1306 171.393 86.5346 171.674 86.9089 172.609C87.3769 173.732 85.8794 175.322 85.6922 173.638C85.5986 172.422 84.1946 171.767 83.2587 172.609C81.3868 174.387 82.8843 177.662 85.505 177.662C87.7513 177.662 89.8104 175.322 89.904 173.171C90.0912 170.27 87.4705 168.867 85.1306 168.305Z" fill="white"/>
<path d="M241.998 204.701C240.406 198.152 232.076 191.977 224.869 191.322C220.096 189.825 214.948 188.608 209.988 188.702C208.677 188.702 207.461 188.889 206.15 188.983C207.648 187.392 208.958 185.334 209.052 183.369C209.052 182.34 208.771 181.404 208.303 180.656C211.017 181.123 213.919 181.123 216.82 180.094C217.756 179.813 217.382 178.316 216.446 178.597C211.204 180.094 205.589 178.316 199.879 175.977C200.16 175.603 200.254 175.135 200.067 174.574C198.288 169.054 195.293 164.656 191.456 161.288C196.51 162.317 201.564 162.598 205.682 161.101C208.771 161.288 209.894 156.61 209.333 154.177C208.584 150.716 205.402 149.406 202.126 149.78C199.131 150.154 196.697 153.522 198.756 156.236C199.599 157.359 201.19 157.826 202.594 157.639C203.342 157.546 205.402 156.516 204.653 155.394C203.998 154.365 203.155 154.926 202.219 154.552C201.377 154.177 201.096 153.522 202.032 152.961C202.594 152.587 203.81 152.68 204.559 152.774C206.244 153.055 206.993 154.645 206.899 156.236C206.805 157.359 206.244 158.107 205.682 158.856C200.16 159.136 195.2 158.762 189.677 157.265C186.495 156.423 183.406 155.487 180.224 155.487C178.633 155.019 176.948 154.645 175.264 154.458C166.278 153.242 157.106 153.335 148.027 154.271C140.352 155.113 132.958 157.733 125.47 159.23C110.963 159.885 96.8301 168.96 82.6035 162.972C79.7956 159.23 78.4853 153.242 84.9434 152.68C86.8153 152.493 88.8744 152.774 90.6528 153.429C92.0567 153.99 93.1799 155.019 93.2735 156.61C93.3671 159.136 88.6872 162.224 88.8744 156.984C88.8744 156.142 87.5641 155.674 87.1897 156.516C85.4114 160.165 89.0616 163.908 92.8055 162.13C97.1109 160.072 97.1109 153.99 93.7414 151.09C89.8104 147.722 82.6035 147.067 78.7661 150.809C74.5543 154.832 76.239 161.195 79.7956 165.124C80.2636 165.592 80.8252 165.686 81.2932 165.592C84.6626 168.118 89.1552 168.68 93.5542 168.492C92.5247 169.522 91.6823 170.738 91.4015 172.235C90.6528 176.071 93.6478 180.281 97.5789 180.562C101.229 180.749 105.16 176.913 104.037 173.077C102.914 169.241 97.8597 169.147 96.3621 172.703C95.7069 174.293 97.9533 175.229 99.0764 174.293C99.7316 173.638 101.042 173.171 101.042 174.668C101.042 175.416 99.9188 176.819 99.3572 177.1C97.2981 178.223 95.1454 176.258 94.771 174.293C94.3966 172.048 96.0813 170.738 97.8597 169.709C98.7956 169.147 99.7316 168.773 100.2 167.931C101.042 167.744 101.884 167.65 102.727 167.463C116.672 164.75 133.239 158.201 143.722 169.896C144.564 171.767 146.249 173.732 145.594 175.79C145.032 177.755 142.599 179.065 140.633 178.971C138.48 178.878 136.421 177.1 136.421 174.855C136.328 173.638 138.574 170.925 139.416 173.358C139.603 174.013 138.948 175.042 139.042 175.79C139.042 176.071 139.229 176.258 139.51 176.352C141.195 176.913 142.411 175.135 142.505 173.545C142.692 171.486 141.288 169.615 139.229 169.241C134.081 168.212 132.116 174.387 134.269 178.129C136.702 182.246 141.756 183.275 145.594 180.468C148.869 178.036 149.805 174.013 148.214 170.738C146.998 164.844 139.136 161.195 133.426 159.885C141.101 158.013 148.963 156.984 156.825 156.797C158.042 156.797 159.352 156.704 160.569 156.704C165.904 159.791 171.801 162.785 172.549 169.241C169.929 169.522 167.402 169.989 164.781 170.738C162.535 170.551 160.382 170.644 158.229 170.27C156.264 169.989 153.549 169.802 152.052 168.399C149.712 166.247 150.273 162.785 153.362 161.662C154.579 161.195 156.451 160.82 157.668 161.288C158.323 161.756 158.884 162.13 159.539 162.598C158.416 166.528 157.293 166.902 155.983 163.814C156.357 163.347 156.17 162.504 155.421 162.504C153.643 162.504 152.707 164.282 153.269 165.873C153.924 167.931 156.544 168.586 158.51 168.212C164.874 167.089 162.909 159.043 157.668 157.733C151.303 156.142 145.5 162.13 148.027 168.212C149.244 171.112 151.49 172.422 154.392 173.171C155.14 173.358 155.983 173.545 156.732 173.638C151.865 175.79 147.278 179.346 148.214 184.585C149.431 191.602 159.259 193.286 163.845 188.421C168.525 183.369 161.973 176.445 156.264 179.252C154.204 180.281 152.707 182.62 153.924 184.866C155.047 186.831 158.51 187.018 159.82 185.334C160.195 184.866 159.914 183.93 159.165 184.211C157.012 184.959 156.544 179.439 160.663 181.965C162.909 183.369 162.441 185.989 160.475 187.205C157.106 189.263 151.397 187.673 151.303 183.275C151.209 177.381 159.259 176.632 163.19 173.825C163.19 173.825 163.19 173.825 163.283 173.825C173.111 172.983 182.002 172.328 191.924 175.229C196.135 176.445 204.559 180.375 204.746 180.468C209.052 182.433 203.904 186.924 203.062 189.357C197.165 190.012 191.175 190.667 185.84 188.047V187.953C185.185 186.55 184.53 185.427 184.623 183.837C184.81 181.872 186.027 180.001 188.086 179.533C189.865 179.159 191.456 180.375 192.298 181.965C192.672 182.714 193.234 184.117 192.204 184.772C190.801 185.614 190.426 184.117 190.145 183.275C189.958 182.62 189.022 182.34 188.554 182.807C186.121 185.708 190.239 188.702 193.14 187.486C197.165 185.708 196.51 180.468 193.702 177.942C190.426 175.135 185.653 175.603 183.219 179.252C181.254 182.059 180.973 187.205 184.155 189.263C184.155 189.357 184.155 189.357 184.249 189.45C188.741 194.316 194.732 193.193 200.815 192.538C204.746 192.07 208.865 191.322 212.796 191.415C213.076 191.415 213.451 191.509 213.825 191.509C213.732 191.509 213.638 191.509 213.544 191.602C211.298 192.725 209.707 195.625 211.111 197.965C212.14 199.649 215.416 200.491 216.82 198.807C218.318 197.029 216.633 194.877 214.574 195.251C213.919 195.345 213.919 196.468 214.574 196.561C214.2 196.468 214.012 198.339 213.264 196.655C212.983 196.093 213.17 195.438 213.451 194.971C214.012 193.941 215.229 193.567 216.352 193.474C218.037 193.286 219.815 193.848 221.5 193.286C224.121 194.128 226.835 194.503 229.362 195.438C227.677 195.532 226.18 196.187 225.244 197.871C223.746 200.584 225.712 204.14 228.145 205.543C230.485 206.853 233.761 206.104 234.884 203.485C236.195 200.397 233.293 198.339 230.485 199.274C229.269 199.649 229.549 201.426 230.766 201.52C231.14 201.52 232.451 201.707 232.544 202.175C232.732 203.017 231.421 203.391 230.86 203.391C229.549 203.485 228.613 202.549 227.958 201.52C225.993 197.965 231.234 198.339 233.2 198.619C233.668 198.713 234.042 198.526 234.229 198.339C236.85 200.397 238.815 203.11 240.032 206.385C240.219 207.134 240.313 207.976 240.126 208.724C239.938 209.753 239.283 210.689 238.16 210.97C237.692 211.063 237.318 211.063 236.85 210.97C235.727 210.128 235.633 209.566 236.756 209.379C237.224 210.876 239.564 210.221 239.096 208.724C238.347 206.479 235.727 206.292 234.229 208.069C232.638 210.128 233.855 212.747 236.195 213.496C241.342 215.18 244.618 208.163 241.998 204.701ZM181.722 169.428C179.663 169.147 177.697 168.96 175.825 168.96C175.357 163.721 171.894 159.323 167.308 156.797C179.85 157.546 191.549 161.195 196.323 174.574C191.362 172.328 186.402 170.083 181.722 169.428Z" fill="white"/>
<path d="M248.362 226.314C247.707 225.097 246.771 224.255 245.741 223.413C245.929 223.32 246.209 223.226 246.397 223.039C249.298 220.794 248.83 216.022 246.116 213.964C244.712 212.934 242.934 212.56 241.249 213.122C240.126 213.496 238.254 214.619 238.347 216.022C238.441 216.864 239.377 217.051 239.845 216.396C241.717 213.964 245.086 215.461 245.648 218.08C245.835 218.922 245.741 220.794 244.899 221.261C244.15 221.729 242.84 221.449 242.559 220.513C242.372 219.577 242.746 219.39 243.121 219.952C243.495 220.513 244.431 220.513 244.618 219.764C245.18 216.864 240.968 216.77 240.406 219.577C240.126 220.981 240.687 222.103 241.623 222.852C242.466 223.975 243.776 224.817 244.618 225.659C245.741 226.782 246.677 228.091 247.426 229.495C248.175 230.898 248.269 232.395 249.017 233.705C249.111 233.892 249.579 233.986 249.672 233.705C250.608 231.553 249.579 228.372 248.362 226.314Z" fill="white"/>
<path d="M232.544 186.176C229.175 186.363 226.367 187.579 222.904 187.018C220.283 186.55 217.756 185.614 215.229 184.866C215.51 184.585 215.884 184.304 216.165 184.024C217.756 182.62 219.441 181.404 221.406 180.656C221.781 180.468 221.968 180.281 222.062 179.813C222.062 179.626 222.062 179.533 221.968 179.439L221.781 179.159C221.594 178.971 221.219 178.878 220.939 178.971C218.973 179.533 217.195 180.468 215.51 181.591C214.48 182.246 213.451 183.462 212.421 184.304C211.485 185.053 210.549 186.176 211.86 186.831C217.007 189.357 228.333 192.07 232.732 186.831C232.919 186.643 232.825 186.176 232.544 186.176Z" fill="white"/>
<path d="M229.549 175.977C224.963 175.697 220.283 176.726 215.791 175.229C211.392 173.732 208.397 169.896 205.121 166.808C206.993 166.153 208.771 165.498 210.643 164.937C212.234 164.469 214.574 164.189 215.791 163.066C216.071 162.785 216.071 162.317 215.791 162.037C214.574 161.101 212.234 162.037 210.924 162.317C208.116 162.972 205.308 163.721 202.5 164.656C201.564 164.937 201.377 165.966 201.658 166.715C201.658 167.089 201.751 167.37 202.032 167.744C205.495 171.486 210.081 175.79 215.136 177.194C219.535 178.41 225.618 178.971 229.737 176.913C230.298 176.726 230.017 175.977 229.549 175.977Z" fill="white"/>
<path d="M228.613 181.872C228.707 182.153 229.081 182.34 229.362 182.246C229.456 182.246 229.456 182.246 229.549 182.152C229.643 182.059 229.737 182.059 229.737 181.965C230.017 181.31 230.579 181.498 231.421 182.807C230.205 183.649 229.269 183.743 228.52 182.901C228.333 182.807 228.145 182.62 228.052 182.527C227.022 181.778 225.993 181.03 224.682 180.936C222.062 179.72 216.352 182.246 219.535 185.427C220.471 186.456 222.81 187.392 223.934 185.895C224.87 184.679 223.934 183.275 222.53 183.275C222.342 183.275 222.249 183.556 222.436 183.649C223.84 184.679 221.126 185.614 220.751 184.117C220.283 182.433 222.155 182.34 222.998 182.433C223.278 182.433 223.466 182.527 223.653 182.527C224.589 183.182 225.618 183.649 226.648 184.211C227.584 184.772 228.333 185.427 229.549 185.334C231.047 185.334 233.012 184.117 233.2 182.527C233.574 179.159 228.052 178.41 228.613 181.872Z" fill="white"/>
<path d="M231.889 168.867C231.515 166.808 228.894 165.311 227.116 166.528C225.15 167.744 225.805 170.457 227.865 171.112C228.613 171.299 228.988 170.27 228.426 169.896C228.145 167.931 228.707 167.65 230.017 169.054C230.017 170.925 229.175 171.767 227.49 171.674C226.648 171.674 225.712 171.486 224.963 171.112C223.653 170.551 222.53 169.802 221.5 168.96C221.032 167.837 219.909 167.183 218.973 166.528C217.663 165.592 216.165 164.75 214.48 164.469C211.86 164.095 209.145 165.966 209.426 168.867C209.613 171.486 212.234 172.89 214.668 172.048C216.539 171.393 216.914 168.305 214.668 167.931C213.638 167.744 213.17 169.241 214.2 169.522C213.264 169.334 212.796 171.112 212.14 169.334C211.953 168.68 212.047 168.118 212.421 167.65C213.357 166.247 215.323 166.715 216.539 167.37C217.756 168.025 218.879 169.241 220.19 169.896C222.062 172.048 224.589 173.825 227.584 173.545C229.736 173.264 232.357 171.486 231.889 168.867Z" fill="white"/>
<path d="M234.978 153.897C228.333 149.125 217.756 148.283 210.643 152.493C210.268 152.68 210.269 153.055 210.362 153.335C210.269 153.522 210.175 153.803 210.362 154.084C214.387 161.569 221.968 166.247 230.579 165.124C231.14 165.031 231.234 164.095 230.579 164.189C222.53 164.844 216.352 160.072 212.234 153.616C215.791 152.774 219.254 151.838 222.998 152.119C227.022 152.306 230.766 153.616 234.51 155.019C235.165 155.207 235.446 154.177 234.978 153.897Z" fill="white"/>
<path d="M231.983 155.487C230.298 154.926 228.52 156.236 229.268 158.013C229.456 158.481 230.111 158.388 230.298 158.013C231.421 156.142 233.855 159.043 231.515 159.885C230.766 160.165 229.268 159.51 228.707 159.136C227.864 158.762 227.209 158.013 226.461 157.546C225.618 155.3 223.746 153.242 221.5 152.587C219.16 151.932 215.978 152.774 215.791 155.581C215.603 157.92 217.85 159.791 220.19 159.417C221.968 159.136 223.278 156.61 221.313 155.674C220.938 155.487 220.283 155.768 220.47 156.329C220.938 157.171 220.377 157.452 218.692 157.171C217.943 156.516 217.943 155.674 218.786 154.739C219.815 153.99 221.406 154.645 222.342 155.3C223.559 156.142 224.401 157.359 225.431 158.388C225.993 159.604 227.584 160.633 228.52 161.007C230.298 161.756 232.919 162.13 233.948 160.072C234.697 158.388 233.855 156.142 231.983 155.487Z" fill="white"/>
<path d="M414.869 168.305C416.367 167.931 419.081 167.65 420.579 168.773C429.938 172.141 441.638 172.422 452.214 172.516C453.618 171.674 455.303 171.674 456.894 171.206C459.327 170.551 461.761 169.428 463.82 167.837C465.224 166.621 466.815 165.031 466.441 162.879C466.16 161.288 464.569 159.978 462.884 160.072C461.574 160.165 460.638 160.82 459.983 161.943C460.17 162.692 460.357 163.534 460.638 164.282C461.48 164.563 462.697 163.159 463.352 162.785C463.727 162.598 464.194 162.692 464.475 163.066L464.85 163.534C465.13 163.908 465.13 164.563 464.85 164.937C462.697 167.744 457.362 167.744 456.988 163.44C456.613 159.043 461.948 156.236 465.598 158.013C470.091 160.165 469.717 165.592 466.722 168.867C465.692 170.083 463.82 171.486 461.667 172.609C467.002 172.609 472.244 172.328 477.485 171.58C487.5 169.989 496.392 166.995 495.081 155.3C494.8 154.926 494.52 154.552 494.239 154.271C492.46 152.587 489.746 151.464 487.406 152.68C485.534 153.616 483.194 156.61 484.037 158.762C484.598 160.353 486.002 161.101 487.219 159.604C487.874 158.762 487.874 157.452 487.968 156.423C488.155 155.207 490.027 155.019 490.589 156.049C492.46 159.604 489.559 165.031 485.254 164.75C480.199 164.469 478.608 158.013 480.106 154.084C481.791 149.593 486.564 146.131 491.431 147.254C494.894 148.002 500.603 152.119 499.948 156.984C498.544 168.025 492.46 174.2 481.229 175.697C470.465 177.1 458.766 176.445 448.002 175.884C438.83 175.416 428.066 175.042 419.643 171.019C419.456 170.925 419.268 170.925 418.988 170.831C417.864 170.551 416.835 170.831 415.712 171.112C414.869 171.393 413.465 171.674 413.091 172.609C412.623 173.732 414.121 175.322 414.308 173.638C414.401 172.422 415.805 171.767 416.741 172.609C418.613 174.387 417.116 177.662 414.495 177.662C412.249 177.662 410.19 175.322 410.096 173.171C409.909 170.27 412.529 168.867 414.869 168.305Z" fill="white"/>
<path d="M263.712 213.589C266.052 212.841 267.268 210.221 265.677 208.163C264.273 206.385 261.559 206.572 260.81 208.818C260.342 210.315 262.682 210.97 263.15 209.473C264.273 209.66 264.18 210.221 263.057 211.063C262.589 211.25 262.214 211.25 261.746 211.063C260.717 210.783 260.062 209.847 259.781 208.818C259.594 208.069 259.781 207.227 259.874 206.479C261.091 203.204 263.057 200.584 265.677 198.432C265.958 198.713 266.239 198.807 266.707 198.713C268.579 198.432 273.914 198.058 271.948 201.613C271.387 202.643 270.357 203.578 269.047 203.485C268.485 203.485 267.268 203.017 267.362 202.268C267.456 201.801 268.766 201.613 269.14 201.613C270.357 201.52 270.638 199.836 269.421 199.368C266.52 198.432 263.712 200.491 265.022 203.578C266.145 206.198 269.421 206.946 271.761 205.637C274.195 204.327 276.254 200.678 274.663 197.965C273.727 196.28 272.229 195.625 270.544 195.532C273.165 194.596 275.786 194.128 278.406 193.38C280.091 193.848 281.869 193.38 283.554 193.567C284.677 193.661 285.894 194.035 286.456 195.064C286.736 195.625 286.924 196.187 286.643 196.748C285.894 198.432 285.707 196.561 285.332 196.655C285.988 196.561 285.988 195.438 285.332 195.345C283.273 194.971 281.589 197.122 283.086 198.9C284.49 200.584 287.766 199.742 288.796 198.058C290.199 195.719 288.608 192.819 286.362 191.696C286.268 191.696 286.175 191.696 286.081 191.602C286.456 191.602 286.736 191.509 287.111 191.509C291.135 191.415 295.16 192.164 299.091 192.631C305.175 193.286 311.165 194.409 315.658 189.544C315.751 189.45 315.658 189.45 315.751 189.357C319.027 187.298 318.653 182.153 316.687 179.346C314.16 175.79 309.48 175.229 306.204 178.036C303.303 180.562 302.648 185.708 306.766 187.579C309.574 188.889 313.786 185.801 311.352 182.901C310.884 182.34 309.948 182.714 309.761 183.369C309.48 184.211 309.106 185.708 307.702 184.866C306.672 184.211 307.14 182.807 307.608 182.059C308.451 180.468 309.948 179.252 311.82 179.626C313.786 180.001 315.096 181.965 315.283 183.93C315.377 185.521 314.722 186.643 314.066 188.047V188.14C308.731 190.76 302.741 190.199 296.845 189.45C296.096 186.924 290.855 182.527 295.16 180.562C295.441 180.468 303.771 176.632 307.983 175.322C317.904 172.328 326.796 172.983 336.623 173.919C336.623 173.919 336.623 173.919 336.717 173.919C340.648 176.726 348.697 177.381 348.603 183.369C348.51 187.766 342.8 189.357 339.431 187.298C337.465 186.082 336.997 183.462 339.244 182.059C343.362 179.533 342.988 184.959 340.741 184.304C339.993 184.117 339.712 184.959 340.086 185.427C341.49 187.111 344.86 187.018 345.983 184.959C347.199 182.714 345.702 180.375 343.643 179.346C337.933 176.539 331.382 183.462 336.062 188.515C340.554 193.38 350.475 191.696 351.692 184.679C352.628 179.439 348.042 175.884 343.175 173.732C344.017 173.545 344.766 173.451 345.515 173.264C348.416 172.609 350.662 171.206 351.879 168.305C354.406 162.224 348.603 156.236 342.239 157.826C336.997 159.136 335.032 167.183 341.397 168.305C343.362 168.68 345.889 168.025 346.638 165.966C347.199 164.376 346.263 162.598 344.485 162.598C343.736 162.598 343.549 163.44 343.924 163.908C342.707 166.995 341.49 166.528 340.367 162.692C341.022 162.224 341.584 161.85 342.239 161.382C343.456 161.007 345.328 161.382 346.544 161.756C349.633 162.879 350.195 166.341 347.855 168.492C346.357 169.896 343.643 169.989 341.677 170.364C339.431 170.738 337.278 170.738 335.126 170.831C332.505 170.083 329.884 169.522 327.357 169.335C328.106 162.785 334.002 159.885 339.337 156.797C340.554 156.797 341.864 156.797 343.081 156.891C350.943 157.171 358.805 158.201 366.48 159.978C360.771 161.288 352.909 164.844 351.692 170.831C350.101 174.106 350.943 178.129 354.313 180.562C358.15 183.369 363.298 182.34 365.638 178.223C367.791 174.48 365.825 168.305 360.677 169.335C358.712 169.709 357.308 171.58 357.401 173.638C357.495 175.229 358.712 176.913 360.396 176.445C360.677 176.352 360.864 176.165 360.864 175.884C360.864 175.135 360.209 174.106 360.49 173.451C361.332 171.019 363.485 173.638 363.485 174.948C363.392 177.194 361.332 178.971 359.273 179.065C357.401 179.159 354.968 177.849 354.313 175.884C353.658 173.919 355.342 171.861 356.185 169.989C366.667 158.294 383.234 164.844 397.18 167.557C398.022 167.744 398.864 167.837 399.707 168.025C400.175 168.867 401.111 169.241 402.047 169.802C403.731 170.831 405.51 172.141 405.135 174.387C404.761 176.352 402.608 178.316 400.549 177.194C399.988 176.913 398.864 175.51 398.864 174.761C398.864 173.264 400.175 173.825 400.83 174.387C401.86 175.416 404.199 174.387 403.544 172.796C402.047 169.241 396.993 169.334 395.869 173.171C394.746 177.007 398.677 180.843 402.327 180.656C406.259 180.468 409.254 176.165 408.505 172.328C408.224 170.925 407.382 169.615 406.352 168.586C410.751 168.773 415.244 168.212 418.613 165.686C419.175 165.779 419.736 165.686 420.111 165.218C423.574 161.382 425.352 155.019 421.14 150.903C417.209 147.16 410.096 147.815 406.165 151.183C402.889 153.99 402.795 160.165 407.101 162.224C410.845 164.001 414.495 160.259 412.717 156.61C412.342 155.768 411.032 156.236 411.032 157.078C411.219 162.317 406.539 159.23 406.633 156.704C406.727 155.113 407.85 154.084 409.254 153.522C410.938 152.868 413.091 152.587 414.963 152.774C421.421 153.335 420.111 159.323 417.303 163.066C403.17 169.054 388.943 159.885 374.436 159.323C366.948 157.92 359.554 155.207 351.879 154.365C342.894 153.335 333.628 153.335 324.643 154.552C322.958 154.739 321.273 155.113 319.682 155.581C316.5 155.581 313.411 156.516 310.229 157.359C304.707 158.856 299.84 159.23 294.224 158.949C293.663 158.201 293.101 157.452 293.007 156.329C292.914 154.739 293.663 153.148 295.347 152.868C296.002 152.774 297.313 152.68 297.874 153.055C298.717 153.71 298.53 154.365 297.687 154.645C296.751 155.019 295.909 154.458 295.254 155.487C294.505 156.61 296.564 157.639 297.313 157.733C298.717 157.92 300.214 157.546 301.15 156.329C303.209 153.616 300.869 150.248 297.781 149.874C294.505 149.499 291.323 150.809 290.574 154.271C290.106 156.704 291.135 161.382 294.224 161.195C298.342 162.692 303.49 162.411 308.451 161.382C304.52 164.75 301.525 169.147 299.84 174.668C299.653 175.229 299.746 175.697 300.027 176.071C294.318 178.41 288.702 180.188 283.461 178.691C282.525 178.41 282.15 179.907 283.086 180.188C285.988 181.123 288.796 181.123 291.603 180.749C291.135 181.498 290.855 182.433 290.855 183.462C290.948 185.334 292.259 187.486 293.756 189.076C292.446 188.983 291.135 188.795 289.919 188.795C284.958 188.608 279.81 189.825 275.037 191.415C267.924 191.977 259.594 198.245 257.909 204.795C255.382 208.163 258.658 215.18 263.712 213.589ZM303.677 174.574C308.451 161.195 320.15 157.546 332.692 156.797C328.106 159.323 324.643 163.721 324.175 168.96C322.303 168.96 320.431 169.147 318.278 169.428C313.598 170.083 308.638 172.328 303.677 174.574Z" fill="white"/>
<path d="M251.638 226.314C252.293 225.098 253.229 224.255 254.259 223.413C254.071 223.32 253.791 223.226 253.603 223.039C250.702 220.794 251.17 216.022 253.884 213.964C255.288 212.934 257.066 212.56 258.751 213.122C259.874 213.496 261.746 214.619 261.653 216.022C261.559 216.864 260.623 217.051 260.155 216.396C258.283 213.964 254.914 215.461 254.352 218.08C254.165 218.922 254.259 220.794 255.101 221.261C255.85 221.729 257.16 221.449 257.441 220.513C257.628 219.577 257.254 219.39 256.879 219.952C256.505 220.513 255.569 220.513 255.382 219.764C254.82 216.864 259.032 216.77 259.594 219.577C259.874 220.981 259.313 222.104 258.377 222.852C257.534 223.975 256.224 224.817 255.382 225.659C254.259 226.782 253.323 228.091 252.574 229.495C251.825 230.898 251.731 232.395 250.983 233.705C250.889 233.892 250.421 233.986 250.328 233.705C249.298 231.553 250.421 228.372 251.638 226.314Z" fill="white"/>
<path d="M267.456 186.176C270.825 186.363 273.633 187.579 277.096 187.018C279.717 186.55 282.244 185.614 284.771 184.866C284.49 184.585 284.116 184.304 283.835 184.024C282.244 182.62 280.559 181.404 278.594 180.656C278.219 180.468 278.032 180.281 277.938 179.813C277.938 179.626 277.938 179.533 278.032 179.439L278.219 179.159C278.406 178.971 278.781 178.878 279.062 178.971C281.027 179.533 282.805 180.468 284.49 181.591C285.52 182.246 286.549 183.462 287.579 184.304C288.515 185.053 289.451 186.176 288.14 186.831C282.993 189.357 271.667 192.07 267.268 186.831C267.081 186.643 267.175 186.176 267.456 186.176Z" fill="white"/>
<path d="M270.451 175.977C275.037 175.697 279.717 176.726 284.209 175.229C288.608 173.732 291.603 169.896 294.879 166.808C293.007 166.153 291.229 165.498 289.357 164.937C287.766 164.469 285.426 164.189 284.209 163.066C283.929 162.785 283.929 162.317 284.209 162.037C285.426 161.101 287.766 162.037 289.076 162.317C291.884 162.972 294.692 163.721 297.5 164.656C298.436 164.937 298.623 165.966 298.342 166.715C298.342 167.089 298.249 167.37 297.968 167.744C294.505 171.486 289.919 175.79 284.865 177.194C280.466 178.41 274.382 178.971 270.264 176.913C269.702 176.726 269.983 175.977 270.451 175.977Z" fill="white"/>
<path d="M271.387 181.872C271.293 182.152 270.919 182.34 270.638 182.246C270.544 182.246 270.544 182.246 270.451 182.152C270.357 182.059 270.264 182.059 270.264 181.965C269.983 181.31 269.421 181.498 268.579 182.807C269.796 183.649 270.732 183.743 271.48 182.901C271.667 182.807 271.855 182.62 271.948 182.527C272.978 181.778 274.007 181.03 275.318 180.936C277.938 179.72 283.648 182.246 280.466 185.427C279.53 186.456 277.19 187.392 276.066 185.895C275.131 184.679 276.066 183.275 277.47 183.275C277.658 183.275 277.751 183.556 277.564 183.649C276.16 184.679 278.874 185.614 279.249 184.117C279.717 182.433 277.845 182.34 277.002 182.433C276.722 182.433 276.534 182.527 276.347 182.527C275.411 183.182 274.382 183.649 273.352 184.211C272.416 184.772 271.667 185.427 270.451 185.334C268.953 185.334 266.988 184.117 266.8 182.527C266.426 179.159 271.948 178.41 271.387 181.872Z" fill="white"/>
<path d="M268.111 168.867C268.485 166.808 271.106 165.311 272.884 166.528C274.85 167.744 274.195 170.457 272.135 171.112C271.387 171.299 271.012 170.27 271.574 169.896C271.855 167.931 271.293 167.65 269.983 169.054C269.983 170.925 270.825 171.767 272.51 171.674C273.352 171.674 274.288 171.486 275.037 171.112C276.347 170.551 277.47 169.802 278.5 168.96C278.968 167.837 280.091 167.183 281.027 166.528C282.337 165.592 283.835 164.75 285.52 164.469C288.14 164.095 290.855 165.966 290.574 168.867C290.387 171.486 287.766 172.89 285.332 172.048C283.461 171.393 283.086 168.305 285.332 167.931C286.362 167.744 286.83 169.241 285.8 169.522C286.736 169.334 287.204 171.112 287.86 169.334C288.047 168.68 287.953 168.118 287.579 167.65C286.643 166.247 284.677 166.715 283.461 167.37C282.244 168.025 281.121 169.241 279.81 169.896C277.938 172.048 275.411 173.825 272.416 173.545C270.264 173.264 267.549 171.486 268.111 168.867Z" fill="white"/>
<path d="M265.022 153.897C271.667 149.125 282.244 148.283 289.357 152.493C289.731 152.68 289.731 153.055 289.638 153.335C289.731 153.522 289.825 153.803 289.638 154.084C285.613 161.569 278.032 166.247 269.421 165.124C268.86 165.031 268.766 164.095 269.421 164.189C277.47 164.844 283.648 160.072 287.766 153.616C284.209 152.774 280.746 151.838 277.002 152.119C272.978 152.306 269.234 153.616 265.49 155.019C264.835 155.207 264.554 154.177 265.022 153.897Z" fill="white"/>
<path d="M268.017 155.487C269.702 154.926 271.48 156.236 270.732 158.013C270.544 158.481 269.889 158.388 269.702 158.013C268.579 156.142 266.145 159.043 268.485 159.885C269.234 160.165 270.732 159.51 271.293 159.136C272.135 158.762 272.791 158.013 273.539 157.546C274.382 155.3 276.254 153.242 278.5 152.587C280.84 151.932 284.022 152.774 284.209 155.581C284.397 157.92 282.15 159.791 279.81 159.417C278.032 159.136 276.722 156.61 278.687 155.674C279.062 155.487 279.717 155.768 279.53 156.329C279.062 157.171 279.623 157.452 281.308 157.171C282.057 156.516 282.057 155.674 281.214 154.739C280.185 153.99 278.594 154.645 277.658 155.3C276.441 156.142 275.599 157.359 274.569 158.388C274.007 159.604 272.416 160.633 271.48 161.007C269.702 161.756 267.081 162.13 266.052 160.072C265.303 158.388 266.145 156.142 268.017 155.487Z" fill="white"/>
<path d="M249.953 148.47C240.687 148.47 233.2 159.51 233.2 173.077C233.2 186.643 240.687 197.684 249.953 197.684C259.219 197.684 266.707 186.643 266.707 173.077C266.707 159.51 259.219 148.47 249.953 148.47ZM249.953 150.435C255.475 150.435 260.249 155.113 262.776 161.943C257.628 160.259 251.919 159.604 246.584 160.072C243.589 160.353 239.658 160.633 236.943 162.317C239.471 155.207 244.338 150.435 249.953 150.435ZM235.165 173.077C235.165 170.457 235.446 167.931 236.007 165.592C236.195 165.592 236.288 165.592 236.475 165.405C239.938 162.598 246.209 162.504 250.328 162.504C254.727 162.504 258.845 163.534 263.15 164.656C263.337 164.75 263.525 164.75 263.618 164.656C264.18 166.995 264.554 169.428 264.648 172.048C258.751 171.393 252.761 171.112 246.771 171.299C242.746 171.393 238.628 171.393 235.165 173.451C235.259 173.264 235.165 173.171 235.165 173.077ZM264.741 174.668C264.554 177.849 263.993 180.843 263.057 183.556C262.87 183.556 262.682 183.556 262.495 183.649C258.283 185.801 253.791 186.55 249.017 186.269C244.993 185.989 241.249 184.679 237.224 184.304C236.195 181.685 235.539 178.784 235.259 175.697C244.337 172.609 255.288 173.732 264.741 174.668ZM249.953 195.719C245.086 195.719 240.781 192.07 238.067 186.456C245.086 190.105 254.446 189.731 261.746 186.643C259.126 192.164 254.82 195.719 249.953 195.719Z" fill="white"/>
<path d="M249.953 197.684C246.677 197.684 244.057 201.239 244.057 205.543C244.057 209.847 246.677 213.402 249.953 213.402C253.229 213.402 255.85 209.847 255.85 205.543C255.943 201.239 253.229 197.684 249.953 197.684ZM249.953 199.649C251.357 199.649 252.668 200.865 253.323 202.643C251.264 202.362 248.549 202.081 246.49 202.83C247.145 200.958 248.456 199.649 249.953 199.649ZM246.116 204.701C247.052 204.888 247.988 204.795 249.017 204.888C250.702 204.982 252.293 204.982 253.978 205.169C253.978 205.262 253.978 205.449 253.978 205.543C253.978 206.385 253.884 207.134 253.603 207.882C253.51 207.882 253.416 207.789 253.323 207.789C251.17 207.789 248.924 207.695 246.771 207.976C246.677 207.976 246.584 208.069 246.49 208.069C246.209 207.321 246.116 206.479 246.116 205.543C246.022 205.262 246.116 204.982 246.116 204.701ZM249.953 211.531C248.83 211.531 247.801 210.783 247.052 209.66C248.924 209.66 250.889 209.566 252.761 209.66C252.106 210.689 251.076 211.531 249.953 211.531Z" fill="white"/>
</svg>
